<svg id="Icons" xmlns="http://www.w3.org/2000/svg" viewBox="0 0 64 64">
  <defs>
    <style>
      .cls-1 {
        fill: #444;
      }

      .cls-2 {
        fill: #5e5e5e;
      }
    </style>
  </defs>
  <title>logo_linux</title>
  <g>
    <path class="cls-1" d="M42.91,44.25c-1.27,0-2.15,0-2.11,2.11A43.63,43.63,0,0,1,40.18,56c-.76,4.55.18,6.41,3.09,6.69,3.35.33,4.77-2,7.64-3.85,2.29-1.45,4.91-3.09,6.18-3.78s1.38-2.11-.84-3.78c-1.89-1.42-3-2.18-3.09-4.4s-1.05-2.73-2-1.27-2.67,3-4.91,2.51a2.11,2.11,0,0,1-2-2.4C44.29,44.65,43.79,44.22,42.91,44.25Z"/>
    <path class="cls-1" d="M39.38,52.72l-.91,7.05s-3.31-.25-5.42-.25-5.78.22-5.78.22l-.18-3.09A14.12,14.12,0,0,0,34,56,15.38,15.38,0,0,0,39.38,52.72Z"/>
    <path class="cls-1" d="M18.87,44.65s4.05,6.12,4.95,7.27c1.38,1.78,3.16-.62.8-2.58C21.46,46.71,18.87,44.65,18.87,44.65Z"/>
    <path class="cls-1" d="M7.24,48.25c2.78-.91,3.27-.55,5.71-3.67s3.42-1.35,5,.8S24,54,25.2,55.7s1.13,4.29-.4,5.49-2.91,2.36-6.55.76a51.88,51.88,0,0,0-9.78-2.69C6.77,58.86,5.67,58.43,6,56a19,19,0,0,0,.18-5.24C5.93,49.37,5.78,48.72,7.24,48.25Z"/>
    <ellipse class="cls-2" cx="28.28" cy="15.39" rx="0.6" ry="0.27" transform="translate(-3.84 13.19) rotate(-24.64)"/>
    <path class="cls-1" d="M44.95,43.41l-.17.12a2.19,2.19,0,0,1,.42,1.85,1.64,1.64,0,0,0,2.11,1.85c2-.34,3.12-2.4,3.48-3.15C48.72,42.69,45.63,42.91,44.95,43.41Z"/>
    <path class="cls-1" d="M35.46,16.1l-.94-.4c1.61-.87,1.7-2.64.47-3.53a1.4,1.4,0,0,0-2.25,1,7.37,7.37,0,0,0,0,1.76,7.4,7.4,0,0,0-3.13-.71,5,5,0,0,0-2,.75c.14-2.52-.58-3.35-1.8-2.89s-1,2.48.5,3.76A8.84,8.84,0,0,0,25.06,17c-.95,1.09-1.23,1.74.51,3.64,2.07,2.25,4.11,3,6.87,1.53,3.13-1.69,4.58-2.55,4.65-3.89S36.36,16.47,35.46,16.1Zm-1.07-3.55c.12-.1.4,0,.61.27s.29.54.17.65-.4,0-.61-.27S34.27,12.65,34.39,12.55Zm-3.9,2.57c0-.14.34-.18.65-.08s.53.3.49.44-.34.18-.65.08S30.44,15.26,30.49,15.12Zm-4-2.7c.15-.07.37.13.51.43s.12.6,0,.67-.37-.13-.51-.43S26.35,12.48,26.5,12.42Zm9,6c-1.67,1.05-4.91,2.91-6.58,2.73a6.51,6.51,0,0,1-3.82-1.6c-.66-.63-.62-1.09.11-.51a6.34,6.34,0,0,0,3.64,1.35c1.82.15,4.72-1.73,6.4-2.55C36.37,17.3,37.17,17.37,35.49,18.43Z"/>
    <path class="cls-1" d="M46,24.75c-4.33-5.56-4.07-8.84-4.4-13.06S39.73.38,30.37,1c-8.69.62-7.6,9.27-7.31,13.31s.91,7.38-1.89,10.73A54.05,54.05,0,0,0,14,37.23a11.83,11.83,0,0,0-.91,5.71,3,3,0,0,1,2.25-1,3.1,3.1,0,0,1,1,.12c-1.26-3.49,1.45-9,2.38-10.15.4-.51.62-.8.29-.07-1.17,2.59-3.13,6.67-1.87,10.58a3,3,0,0,1,.67.55,18.33,18.33,0,0,1,3.31-11.53,5.88,5.88,0,0,1,3-2s-3.45-.58-.33-4.4a5.93,5.93,0,0,0,.91-4.44,2.5,2.5,0,0,1-1.09-2.18A3.32,3.32,0,0,1,25,15.92a5.59,5.59,0,0,1-.55-4.18c.62-2.4,2.4-2.47,3.64-.91a2.64,2.64,0,0,1,.58,2.8h2.55a4.61,4.61,0,0,1,.18-2.44A3.23,3.23,0,0,1,34.15,9.3a3.36,3.36,0,0,1,3.31,3.35,7.23,7.23,0,0,1-.58,3.27,2.19,2.19,0,0,1,.91,2.62c-.62,1.71-.4,2-.18,2.51s1.75,3.89,4.47,10.26a23.45,23.45,0,0,1,1.85,11.82,1.33,1.33,0,0,1,.68.26l.08-.11c.12-.16-.44-.09.31-.26,3.71-6.65.5-11.32-.91-12.35-.6-.44-.25-.23.05-.07,4.15,2.19,4.85,7.15,2.8,11.94a5.76,5.76,0,0,1,4.17,1.33c.41,0,1.31.06,1.54-.5C54.61,38.46,50.37,30.32,46,24.75Zm-10.15-19c-.65.44-1-.44-1-.71,0-1,.87-1.47,1.42-.82S36.55,5.3,35.89,5.73Zm5.64,15.67c-.76.76-1.91.33-2.4-1.31-.22-.73,0-1.09.91-.62S42.29,20.64,41.53,21.41Z"/>
  </g>
</svg>